<?xml version="1.0" encoding="iso-8859-1"?>
<!-- Generator: Adobe Illustrator 19.0.0, SVG Export Plug-In . SVG Version: 6.00 Build 0)  -->
<svg version="1.1" id="Layer_1" xmlns="http://www.w3.org/2000/svg" xmlns:xlink="http://www.w3.org/1999/xlink" x="0px" y="0px"
	 viewBox="0 0 496 496" style="enable-background:new 0 0 496 496;" xml:space="preserve">
<g>
	<g>
		<g>
			<path d="M328,0c-34.616,0-66.816,10.536-93.576,28.56l1.992-2.976C211.408,8.84,182.216,0,152,0C68.184,0,0,68.184,0,152v16
				c0,17.912,9.872,33.528,24.448,41.776C9.704,219.872,0,236.824,0,256v240h16V256c0-22.056,17.944-40,40-40h96v-16H91.672
				c7.64-8.504,12.328-19.696,12.328-32H88c0,17.648-14.352,32-32,32h-8c-17.648,0-32-14.352-32-32v-16C16,77.008,77.008,16,152,16
				c25.536,0,50.2,7.144,71.72,20.528C184.968,67.328,160,114.768,160,168c0,78.832,54.648,144.968,128,162.984V360
				c0,66.168-53.832,120-120,120c-66.176,0-120-53.832-120-120c0-22.056,17.944-40,40-40c22.056,0,40,17.944,40,40v8h16v-8
				c0-15.664-6.48-29.824-16.888-40H152v-16H88c-30.872,0-56,25.128-56,56v136h16v-72.136C70.912,466.736,116.088,496,168,496
				c74.992,0,136-61.008,136-136v-25.92c7.856,1.136,15.832,1.92,24,1.92c92.632,0,168-75.368,168-168S420.632,0,328,0z M328,320
				c-83.816,0-152-68.184-152-152S244.184,16,328,16s152,68.184,152,152S411.816,320,328,320z"/>
			<path d="M328,32c-74.992,0-136,61.008-136,136s61.008,136,136,136s136-61.008,136-136S402.992,32,328,32z M328,288
				c-66.176,0-120-53.832-120-120S261.824,48,328,48c66.168,0,120,53.832,120,120S394.168,288,328,288z"/>
			<path d="M272,176c-17.648,0-32,14.352-32,32s14.352,32,32,32s32-14.352,32-32S289.648,176,272,176z M272,224
				c-8.824,0-16-7.176-16-16c0-8.824,7.176-16,16-16c8.816,0,16,7.176,16,16C288,216.824,280.816,224,272,224z"/>
			<path d="M360,136c0-13.232-10.768-24-24-24s-24,10.768-24,24s10.768,24,24,24S360,149.232,360,136z M336,144
				c-4.416,0-8-3.584-8-8s3.584-8,8-8c4.416,0,8,3.584,8,8S340.416,144,336,144z"/>
			<path d="M384,176c-17.648,0-32,14.352-32,32s14.352,32,32,32s32-14.352,32-32S401.648,176,384,176z M384,224
				c-8.824,0-16-7.176-16-16c0-8.824,7.176-16,16-16c8.816,0,16,7.176,16,16C400,216.824,392.816,224,384,224z"/>
			<path d="M400,96c-13.232,0-24,10.768-24,24s10.768,24,24,24s24-10.768,24-24S413.232,96,400,96z M400,128c-4.416,0-8-3.584-8-8
				s3.584-8,8-8c4.416,0,8,3.584,8,8S404.416,128,400,128z"/>
			<path d="M280,72c-17.648,0-32,14.352-32,32s14.352,32,32,32s32-14.352,32-32S297.648,72,280,72z M280,120
				c-8.824,0-16-7.184-16-16s7.176-16,16-16c8.816,0,16,7.184,16,16S288.816,120,280,120z"/>
			<path d="M352,264c0-13.232-10.768-24-24-24s-24,10.768-24,24s10.768,24,24,24S352,277.232,352,264z M328,272
				c-4.416,0-8-3.584-8-8c0-4.416,3.584-8,8-8c4.416,0,8,3.584,8,8C336,268.416,332.416,272,328,272z"/>
		</g>
	</g>
</g>
<g>
</g>
<g>
</g>
<g>
</g>
<g>
</g>
<g>
</g>
<g>
</g>
<g>
</g>
<g>
</g>
<g>
</g>
<g>
</g>
<g>
</g>
<g>
</g>
<g>
</g>
<g>
</g>
<g>
</g>
</svg>
